<svg xmlns="http://www.w3.org/2000/svg" xmlns:xlink="http://www.w3.org/1999/xlink" version="1.1" x="0px" y="0px" viewBox="0 0 100 125" enable-background="new 0 0 100 100" xml:space="preserve"><path d="M80,5H20C11.7,5,5,11.7,5,20v60c0,8.3,6.7,15,15,15h60c8.3,0,15-6.7,15-15V20C95,11.7,88.3,5,80,5z M85,80c0,2.8-2.2,5-5,5  H20c-2.8,0-5-2.2-5-5V45h15.7c-0.4,1.6-0.7,3.3-0.7,5c0,11,9,20,20,20s20-9,20-20c0-1.7-0.2-3.4-0.7-5H85V80z M40,50  c0-5.5,4.5-10,10-10s10,4.5,10,10s-4.5,10-10,10S40,55.5,40,50z M85,35H63.2c-3.5-3.1-8.1-5-13.2-5s-9.7,1.9-13.2,5H15V20  c0-2.8,2.2-5,5-5h60c2.8,0,5,2.2,5,5V35z"/><rect x="70" y="20" width="10" height="10"/><text x="0" y="115" fill="#000000" font-size="5px" font-weight="bold" font-family="'Helvetica Neue', Helvetica, Arial-Unicode, Arial, Sans-serif">Created by Arthur Shlain</text><text x="0" y="120" fill="#000000" font-size="5px" font-weight="bold" font-family="'Helvetica Neue', Helvetica, Arial-Unicode, Arial, Sans-serif">from the Noun Project</text></svg>